<?xml version="1.0" encoding="UTF-8" standalone="no"?>
<svg
   xmlns:dc="http://purl.org/dc/elements/1.1/"
   xmlns:cc="http://creativecommons.org/ns#"
   xmlns:rdf="http://www.w3.org/1999/02/22-rdf-syntax-ns#"
   xmlns:svg="http://www.w3.org/2000/svg"
   xmlns="http://www.w3.org/2000/svg"
   xmlns:sodipodi="http://sodipodi.sourceforge.net/DTD/sodipodi-0.dtd"
   xmlns:inkscape="http://www.inkscape.org/namespaces/inkscape"
   width="456"
   height="456"
   viewBox="0 0 456 456"
   version="1.1"
   xml:space="preserve"
   style="fill-rule:evenodd;clip-rule:evenodd;stroke-linejoin:round;stroke-miterlimit:2;"
   id="svg10"
   sodipodi:docname="splash.svg"
   inkscape:version="1.0.1 (3bc2e813f5, 2020-09-07)"><metadata
   id="metadata16"><rdf:RDF><cc:Work
       rdf:about=""><dc:format>image/svg+xml</dc:format><dc:type
         rdf:resource="http://purl.org/dc/dcmitype/StillImage" /></cc:Work></rdf:RDF></metadata><defs
   id="defs14"><rect
     x="81.93787"
     y="156.2889"
     width="309.54306"
     height="262.50465"
     id="rect843" /></defs><sodipodi:namedview
   pagecolor="#ffffff"
   bordercolor="#666666"
   borderopacity="1"
   objecttolerance="10"
   gridtolerance="10"
   guidetolerance="10"
   inkscape:pageopacity="0"
   inkscape:pageshadow="2"
   inkscape:window-width="1920"
   inkscape:window-height="1017"
   id="namedview12"
   showgrid="false"
   inkscape:zoom="0.65903593"
   inkscape:cx="26.239297"
   inkscape:cy="126.48466"
   inkscape:window-x="-8"
   inkscape:window-y="-8"
   inkscape:window-maximized="1"
   inkscape:current-layer="svg10"
   inkscape:document-rotation="0" />
    
    
    
    
<g
   aria-label="Indoor 
CO2 
Recorder
Beta 

"
   transform="translate(-11.417319,-57.08983)"
   id="text841"
   style="font-size:53.3333px;line-height:1.25;font-family:sans-serif;white-space:pre;shape-inside:url(#rect843)"><path
     d="m 157.7507,204.94665 h -15.31249 v -3.95833 h 5.07812 v -30.85936 h -5.07812 v -3.95833 h 15.31249 v 3.95833 h -5.07812 v 30.85936 h 5.07812 z"
     style="text-align:center;text-anchor:middle"
     id="path851" /><path
     d="m 190.45901,204.94665 h -4.89583 v -16.56249 q 0,-2.00521 -0.23437,-3.75 -0.23438,-1.77083 -0.85938,-2.76041 -0.65104,-1.09375 -1.875,-1.61458 -1.22395,-0.54688 -3.17708,-0.54688 -2.00521,0 -4.1927,0.98958 -2.1875,0.98959 -4.19271,2.52604 v 21.71874 h -4.89583 v -29.08852 h 4.89583 v 3.22916 q 2.29166,-1.90104 4.73958,-2.96875 2.44792,-1.06771 5.02604,-1.06771 4.71354,0 7.18749,2.83854 2.47396,2.83854 2.47396,8.17708 z"
     style="text-align:center;text-anchor:middle"
     id="path853" /><path
     d="M 223.47983,204.94665 H 218.584 v -3.04687 q -2.10938,1.82291 -4.40104,2.83854 -2.29167,1.01562 -4.97396,1.01562 -5.20833,0 -8.28124,-4.01041 -3.04688,-4.01042 -3.04688,-11.11979 0,-3.69791 1.04167,-6.58854 1.06771,-2.89062 2.86458,-4.92187 1.77083,-1.97916 4.11458,-3.02083 2.36979,-1.04167 4.89583,-1.04167 2.29167,0 4.0625,0.4948 1.77083,0.46875 3.72396,1.48437 v -12.60416 h 4.89583 z M 218.584,197.7852 v -16.6927 q -1.97917,-0.88542 -3.54167,-1.22396 -1.5625,-0.33854 -3.41146,-0.33854 -4.11458,0 -6.40624,2.86458 -2.29167,2.86458 -2.29167,8.125 0,5.18228 1.77084,7.89062 1.77083,2.68229 5.67708,2.68229 2.08333,0 4.21874,-0.91146 2.13542,-0.9375 3.98438,-2.39583 z"
     style="text-align:center;text-anchor:middle"
     id="path855" /><path
     d="m 257.90689,190.41541 q 0,7.10937 -3.64583,11.22395 -3.64583,4.11458 -9.76562,4.11458 -6.17187,0 -9.8177,-4.11458 -3.61979,-4.11458 -3.61979,-11.22395 0,-7.10937 3.61979,-11.22395 3.64583,-4.14063 9.8177,-4.14063 6.11979,0 9.76562,4.14063 3.64583,4.11458 3.64583,11.22395 z m -5.05208,0 q 0,-5.65104 -2.21354,-8.38541 -2.21354,-2.76042 -6.14583,-2.76042 -3.98437,0 -6.19791,2.76042 -2.1875,2.73437 -2.1875,8.38541 0,5.46875 2.21354,8.30729 2.21354,2.81249 6.17187,2.81249 3.90625,0 6.11979,-2.78645 2.23958,-2.8125 2.23958,-8.33333 z"
     style="text-align:center;text-anchor:middle"
     id="path857" /><path
     d="m 290.27666,190.41541 q 0,7.10937 -3.64583,11.22395 -3.64584,4.11458 -9.76562,4.11458 -6.17187,0 -9.81771,-4.11458 -3.61979,-4.11458 -3.61979,-11.22395 0,-7.10937 3.61979,-11.22395 3.64584,-4.14063 9.81771,-4.14063 6.11978,0 9.76562,4.14063 3.64583,4.11458 3.64583,11.22395 z m -5.05208,0 q 0,-5.65104 -2.21354,-8.38541 -2.21354,-2.76042 -6.14583,-2.76042 -3.98438,0 -6.19792,2.76042 -2.18749,2.73437 -2.18749,8.38541 0,5.46875 2.21354,8.30729 2.21354,2.81249 6.17187,2.81249 3.90624,0 6.11978,-2.78645 2.23959,-2.8125 2.23959,-8.33333 z"
     style="text-align:center;text-anchor:middle"
     id="path859" /><path
     d="m 316.00582,181.19666 h -0.26042 q -1.09375,-0.26041 -2.13541,-0.36458 -1.01563,-0.13021 -2.42188,-0.13021 -2.26562,0 -4.375,1.01563 -2.10937,0.98958 -4.06249,2.57812 v 20.65103 h -4.89583 v -29.08852 h 4.89583 v 4.29687 q 2.91666,-2.34375 5.1302,-3.30729 2.23958,-0.98958 4.55729,-0.98958 1.27604,0 1.84896,0.0781 0.57291,0.0521 1.71875,0.23438 z"
     style="text-align:center;text-anchor:middle"
     id="path861" /><path
     d="m 205.92775,268.80078 q -1.43229,0.625 -2.60416,1.17187 -1.14584,0.54688 -3.02083,1.14583 -1.58854,0.4948 -3.46354,0.83334 -1.84896,0.36458 -4.08854,0.36458 -4.21875,0 -7.68229,-1.17187 -3.4375,-1.19792 -5.98958,-3.72396 -2.5,-2.47396 -3.90625,-6.27604 -1.40625,-3.82812 -1.40625,-8.8802 0,-4.79166 1.35417,-8.5677 1.35417,-3.77604 3.90625,-6.38021 2.47395,-2.52604 5.96354,-3.85416 3.51562,-1.32813 7.78645,-1.32813 3.125,0 6.22395,0.75521 3.125,0.75521 6.92708,2.65625 v 6.11979 h -0.39062 q -3.20313,-2.68229 -6.35416,-3.90625 -3.15104,-1.22396 -6.74479,-1.22396 -2.94271,0 -5.3125,0.96354 -2.34375,0.9375 -4.19271,2.94271 -1.79687,1.95312 -2.81249,4.94791 -0.98959,2.96875 -0.98959,6.875 0,4.08854 1.09375,7.03125 1.11979,2.9427 2.86458,4.79166 1.82292,1.92708 4.24479,2.86458 2.44792,0.91146 5.15625,0.91146 3.72396,0 6.97916,-1.27604 3.25521,-1.27604 6.09375,-3.82813 h 0.36458 z"
     style="text-align:center;text-anchor:middle"
     id="path863" /><path
     d="m 242.12565,237.29038 q 2.36979,2.60417 3.61979,6.3802 1.27604,3.77604 1.27604,8.56771 0,4.79166 -1.30208,8.59374 -1.27604,3.77604 -3.59375,6.30208 -2.39583,2.63021 -5.67708,3.95833 -3.25521,1.32813 -7.44791,1.32813 -4.08854,0 -7.44791,-1.35417 -3.33334,-1.35416 -5.67708,-3.93229 -2.34375,-2.57812 -3.61979,-6.32812 -1.25,-3.75 -1.25,-8.5677 0,-4.73958 1.25,-8.48958 1.25,-3.77604 3.64583,-6.45833 2.29166,-2.55208 5.67708,-3.90625 3.41145,-1.35416 7.42187,-1.35416 4.16666,0 7.47395,1.3802 3.33333,1.35417 5.65104,3.88021 z m -0.46875,14.94791 q 0,-7.55208 -3.38541,-11.64062 -3.38542,-4.11458 -9.24479,-4.11458 -5.91146,0 -9.29687,4.11458 -3.35937,4.08854 -3.35937,11.64062 0,7.6302 3.43749,11.6927 3.4375,4.03646 9.21875,4.03646 5.78125,0 9.1927,-4.03646 3.4375,-4.0625 3.4375,-11.6927 z"
     style="text-align:center;text-anchor:middle"
     id="path865" /><path
     d="m 280.43292,271.61328 h -26.24999 v -5.44271 q 2.73438,-2.34375 5.46875,-4.6875 2.76042,-2.34374 5.13021,-4.66145 4.99999,-4.84375 6.84895,-7.68229 1.84896,-2.86458 1.84896,-6.17187 0,-3.02083 -2.00521,-4.71354 -1.97917,-1.71875 -5.54687,-1.71875 -2.36979,0 -5.13021,0.83334 -2.76041,0.83333 -5.39062,2.55208 h -0.26042 v -5.46875 q 1.84896,-0.91146 4.92188,-1.66667 3.09895,-0.7552 5.98958,-0.7552 5.96353,0 9.34895,2.89062 3.38541,2.86458 3.38541,7.78645 0,2.21354 -0.57291,4.14063 -0.54688,1.90104 -1.64063,3.61979 -1.01562,1.61458 -2.39583,3.17708 -1.35416,1.5625 -3.30729,3.46354 -2.78645,2.73437 -5.7552,5.31249 -2.96875,2.55209 -5.54687,4.73958 h 20.85936 z"
     style="text-align:center;text-anchor:middle"
     id="path867" /><path
     d="m 154.88612,338.2799 h -6.69271 l -12.96874,-15.41666 h -7.26562 v 15.41666 h -5.15625 v -38.77602 h 10.85937 q 3.51562,0 5.85937,0.46875 2.34375,0.44271 4.21875,1.61459 2.10937,1.32812 3.28125,3.35937 1.19791,2.00521 1.19791,5.10416 0,4.19271 -2.10937,7.03125 -2.10937,2.8125 -5.80729,4.24479 z m -12.05729,-27.86456 q 0,-1.66667 -0.59896,-2.94271 -0.57291,-1.30208 -1.92708,-2.1875 -1.11979,-0.75521 -2.65625,-1.04167 -1.53645,-0.3125 -3.61979,-0.3125 h -6.0677 v 14.63541 h 5.20833 q 2.44791,0 4.27083,-0.41666 1.82292,-0.44271 3.09896,-1.61459 1.17187,-1.09375 1.71875,-2.49999 0.57291,-1.4323 0.57291,-3.61979 z"
     style="text-align:center;text-anchor:middle"
     id="path869" /><path
     d="m 182.54235,324.24345 h -21.43228 q 0,2.68229 0.80729,4.6875 0.80729,1.97917 2.21354,3.25521 1.35417,1.25 3.20312,1.87499 1.875,0.625 4.11459,0.625 2.96874,0 5.96353,-1.17187 3.02083,-1.19792 4.29688,-2.34375 h 0.26041 v 5.33854 q -2.47395,1.04167 -5.05208,1.74479 -2.57812,0.70313 -5.41666,0.70313 -7.23958,0 -11.30208,-3.90625 -4.0625,-3.93229 -4.0625,-11.14583 0,-7.13541 3.88021,-11.32812 3.90625,-4.1927 10.26041,-4.1927 5.88541,0 9.0625,3.43749 3.20312,3.4375 3.20312,9.76562 z m -4.76562,-3.75 q -0.026,-3.85416 -1.95313,-5.96353 -1.90104,-2.10938 -5.80729,-2.10938 -3.93229,0 -6.27603,2.31771 -2.31771,2.31771 -2.63021,5.7552 z"
     style="text-align:center;text-anchor:middle"
     id="path871" /><path
     d="m 211.47462,336.45699 q -2.44791,1.17187 -4.66145,1.82291 -2.1875,0.65104 -4.66146,0.65104 -3.15104,0 -5.78125,-0.91145 -2.6302,-0.9375 -4.5052,-2.8125 -1.90104,-1.875 -2.94271,-4.73958 -1.04166,-2.86458 -1.04166,-6.69271 0,-7.13541 3.90624,-11.19791 3.93229,-4.06249 10.36458,-4.06249 2.5,0 4.89583,0.70312 2.42187,0.70312 4.42708,1.71875 v 5.4427 h -0.26042 q -2.23958,-1.74479 -4.63541,-2.68229 -2.36979,-0.9375 -4.63541,-0.9375 -4.16667,0 -6.58854,2.8125 -2.39583,2.78646 -2.39583,8.20312 0,5.26042 2.34375,8.09896 2.36979,2.81249 6.64062,2.81249 1.48437,0 3.02083,-0.39062 1.53646,-0.39063 2.76041,-1.01562 1.06771,-0.54688 2.00521,-1.14584 0.9375,-0.625 1.48437,-1.06771 h 0.26042 z"
     style="text-align:center;text-anchor:middle"
     id="path873" /><path
     d="m 242.54232,323.74866 q 0,7.10937 -3.64584,11.22395 -3.64583,4.11458 -9.76562,4.11458 -6.17187,0 -9.8177,-4.11458 -3.61979,-4.11458 -3.61979,-11.22395 0,-7.10937 3.61979,-11.22395 3.64583,-4.14062 9.8177,-4.14062 6.11979,0 9.76562,4.14062 3.64584,4.11458 3.64584,11.22395 z m -5.05209,0 q 0,-5.65104 -2.21354,-8.38541 -2.21354,-2.76042 -6.14583,-2.76042 -3.98437,0 -6.19791,2.76042 -2.1875,2.73437 -2.1875,8.38541 0,5.46875 2.21354,8.30729 2.21354,2.8125 6.17187,2.8125 3.90625,0 6.11979,-2.78646 2.23958,-2.8125 2.23958,-8.33333 z"
     style="text-align:center;text-anchor:middle"
     id="path875" /><path
     d="m 268.27147,314.52992 h -0.26042 q -1.09375,-0.26042 -2.13541,-0.36459 -1.01563,-0.1302 -2.42188,-0.1302 -2.26562,0 -4.37499,1.01562 -2.10938,0.98958 -4.0625,2.57812 v 20.65103 h -4.89583 v -29.08852 h 4.89583 v 4.29687 q 2.91666,-2.34375 5.1302,-3.30729 2.23958,-0.98958 4.55729,-0.98958 1.27604,0 1.84896,0.0781 0.57292,0.0521 1.71875,0.23438 z"
     style="text-align:center;text-anchor:middle"
     id="path877" /><path
     d="m 296.47457,338.2799 h -4.89583 v -3.04687 q -2.10937,1.82291 -4.40104,2.83854 -2.29166,1.01562 -4.97395,1.01562 -5.20833,0 -8.28125,-4.01041 -3.04687,-4.01042 -3.04687,-11.11979 0,-3.69791 1.04166,-6.58853 1.06771,-2.89063 2.86459,-4.92188 1.77083,-1.97916 4.11458,-3.02083 2.36979,-1.04166 4.89583,-1.04166 2.29166,0 4.0625,0.49479 1.77083,0.46875 3.72395,1.48437 v -12.60416 h 4.89583 z m -4.89583,-7.16145 v -16.6927 q -1.97916,-0.88542 -3.54166,-1.22396 -1.5625,-0.33854 -3.41146,-0.33854 -4.11458,0 -6.40625,2.86458 -2.29166,2.86458 -2.29166,8.125 0,5.18229 1.77083,7.89062 1.77083,2.68229 5.67708,2.68229 2.08333,0 4.21875,-0.91146 2.13541,-0.9375 3.98437,-2.39583 z"
     style="text-align:center;text-anchor:middle"
     id="path879" /><path
     d="m 330.45892,324.24345 h -21.43228 q 0,2.68229 0.80729,4.6875 0.80729,1.97917 2.21354,3.25521 1.35417,1.25 3.20313,1.87499 1.875,0.625 4.11458,0.625 2.96875,0 5.96354,-1.17187 3.02083,-1.19792 4.29687,-2.34375 h 0.26041 v 5.33854 q -2.47395,1.04167 -5.05208,1.74479 -2.57812,0.70313 -5.41666,0.70313 -7.23958,0 -11.30208,-3.90625 -4.06249,-3.93229 -4.06249,-11.14583 0,-7.13541 3.8802,-11.32812 3.90625,-4.1927 10.26041,-4.1927 5.88542,0 9.0625,3.43749 3.20312,3.4375 3.20312,9.76562 z m -4.76562,-3.75 q -0.026,-3.85416 -1.95312,-5.96353 -1.90105,-2.10938 -5.80729,-2.10938 -3.93229,0 -6.27604,2.31771 -2.31771,2.31771 -2.63021,5.7552 z"
     style="text-align:center;text-anchor:middle"
     id="path881" /><path
     d="m 356.03184,314.52992 h -0.26042 q -1.09375,-0.26042 -2.13542,-0.36459 -1.01562,-0.1302 -2.42187,-0.1302 -2.26562,0 -4.375,1.01562 -2.10937,0.98958 -4.06249,2.57812 v 20.65103 h -4.89583 v -29.08852 h 4.89583 v 4.29687 q 2.91666,-2.34375 5.1302,-3.30729 2.23958,-0.98958 4.55729,-0.98958 1.27604,0 1.84896,0.0781 0.57291,0.0521 1.71875,0.23438 z"
     style="text-align:center;text-anchor:middle"
     id="path883" /><path
     d="m 201.09703,393.01945 q 0,2.89063 -1.09375,5.10417 -1.09375,2.21354 -2.94271,3.64583 -2.1875,1.71875 -4.8177,2.44791 -2.60417,0.72917 -6.64063,0.72917 h -13.74999 v -38.77602 h 11.48437 q 4.24479,0 6.35416,0.3125 2.10938,0.3125 4.03646,1.30208 2.13541,1.11979 3.09896,2.89063 0.96354,1.74479 0.96354,4.1927 0,2.76042 -1.40625,4.71354 -1.40625,1.92708 -3.75,3.09896 v 0.20833 q 3.93229,0.80729 6.19791,3.46354 2.26563,2.63021 2.26563,6.66666 z m -8.67187,-17.47395 q 0,-1.40624 -0.46875,-2.36979 -0.46875,-0.96354 -1.51042,-1.5625 -1.22396,-0.70312 -2.96875,-0.85937 -1.74479,-0.18229 -4.32291,-0.18229 h -6.14583 v 11.19791 h 6.66666 q 2.42188,0 3.85417,-0.23438 1.43229,-0.26041 2.65624,-1.04166 1.22396,-0.78125 1.71875,-2.00521 0.52084,-1.25 0.52084,-2.94271 z m 3.30729,17.68229 q 0,-2.34375 -0.70313,-3.72396 -0.70312,-1.38021 -2.55208,-2.34375 -1.25,-0.65104 -3.04687,-0.83333 -1.77084,-0.20834 -4.32292,-0.20834 h -8.09895 v 14.42708 h 6.82291 q 3.38542,0 5.54687,-0.33854 2.16146,-0.36459 3.54167,-1.30208 1.45833,-1.01563 2.13541,-2.31771 0.67709,-1.30208 0.67709,-3.35937 z"
     style="text-align:center;text-anchor:middle"
     id="path885" /><path
     d="m 232.37305,390.91008 h -21.43228 q 0,2.68229 0.80729,4.6875 0.80729,1.97916 2.21354,3.2552 1.35417,1.25 3.20312,1.875 1.875,0.625 4.11458,0.625 2.96875,0 5.96354,-1.17187 3.02083,-1.19792 4.29688,-2.34375 h 0.26041 v 5.33854 q -2.47395,1.04166 -5.05208,1.74479 -2.57812,0.70312 -5.41666,0.70312 -7.23958,0 -11.30208,-3.90625 -4.0625,-3.93229 -4.0625,-11.14582 0,-7.13542 3.88021,-11.32812 3.90625,-4.19271 10.26041,-4.19271 5.88541,0 9.0625,3.4375 3.20312,3.4375 3.20312,9.76562 z m -4.76562,-3.75 q -0.026,-3.85416 -1.95313,-5.96354 -1.90104,-2.10937 -5.80729,-2.10937 -3.93229,0 -6.27603,2.31771 -2.31771,2.3177 -2.63021,5.7552 z"
     style="text-align:center;text-anchor:middle"
     id="path887" /><path
     d="m 254.89908,404.68611 q -1.38021,0.36458 -3.02084,0.59896 -1.61458,0.23437 -2.89062,0.23437 -4.45312,0 -6.77083,-2.39583 -2.31771,-2.39583 -2.31771,-7.68228 v -15.46875 h -3.30729 V 375.858 h 3.30729 v -8.35937 h 4.89583 v 8.35937 h 10.10417 v 4.11458 h -10.10417 v 13.25521 q 0,2.29166 0.10417,3.59374 0.10417,1.27604 0.72917,2.39584 0.57291,1.04166 1.5625,1.53645 1.01562,0.46875 3.07291,0.46875 1.19792,0 2.5,-0.33854 1.30208,-0.36458 1.875,-0.59896 h 0.26042 z"
     style="text-align:center;text-anchor:middle"
     id="path889" /><path
     d="m 283.41469,404.94653 h -4.86979 v -3.09896 q -0.65104,0.44271 -1.77083,1.25 -1.09375,0.78125 -2.13542,1.25 -1.22396,0.59896 -2.8125,0.98958 -1.58854,0.41667 -3.72395,0.41667 -3.93229,0 -6.66667,-2.60417 -2.73437,-2.60416 -2.73437,-6.64062 0,-3.30729 1.40625,-5.33854 1.43229,-2.05729 4.0625,-3.22916 2.65625,-1.17187 6.3802,-1.58854 3.72396,-0.41667 7.99479,-0.625 v -0.75521 q 0,-1.66666 -0.59896,-2.76041 -0.57291,-1.09375 -1.66666,-1.71875 -1.04167,-0.59896 -2.5,-0.80729 -1.45834,-0.20834 -3.04688,-0.20834 -1.92708,0 -4.29687,0.52084 -2.36979,0.49479 -4.89583,1.45833 h -0.26042 V 376.483 q 1.4323,-0.39062 4.14063,-0.85937 2.70833,-0.46875 5.33854,-0.46875 3.07291,0 5.33853,0.52083 2.29167,0.49479 3.95834,1.71875 1.64062,1.19792 2.49999,3.09896 0.85938,1.90104 0.85938,4.71354 z m -4.86979,-7.16146 v -8.09895 q -2.23958,0.13021 -5.28646,0.39063 -3.02083,0.26041 -4.79166,0.7552 -2.10937,0.59896 -3.41146,1.875 -1.30208,1.25 -1.30208,3.46354 0,2.5 1.51042,3.77604 1.51041,1.25 4.60937,1.25 2.57812,0 4.71354,-0.98958 2.13541,-1.01563 3.95833,-2.42188 z"
     style="text-align:center;text-anchor:middle"
     id="path891" /></g></svg>
