<?xml version="1.0" encoding="UTF-8" standalone="no"?>
<svg
   xmlns:dc="http://purl.org/dc/elements/1.1/"
   xmlns:cc="http://creativecommons.org/ns#"
   xmlns:rdf="http://www.w3.org/1999/02/22-rdf-syntax-ns#"
   xmlns:svg="http://www.w3.org/2000/svg"
   xmlns="http://www.w3.org/2000/svg"
   xmlns:sodipodi="http://sodipodi.sourceforge.net/DTD/sodipodi-0.dtd"
   xmlns:inkscape="http://www.inkscape.org/namespaces/inkscape"
   fill="#000000"
   height="512"
   width="512"
   version="1.1"
   id="Capa_1"
   viewBox="-29.7 -29.7 712.8 712.8"
   xml:space="preserve"
   sodipodi:docname="LocationPermission.svg"
   inkscape:export-filename="D:\ProjectCleanAir\Icons\GPS_Icon_V2.png"
   inkscape:export-xdpi="105.60298"
   inkscape:export-ydpi="105.60298"
   inkscape:version="1.0.1 (3bc2e813f5, 2020-09-07)"><metadata
   id="metadata16"><rdf:RDF><cc:Work
       rdf:about=""><dc:format>image/svg+xml</dc:format><dc:type
         rdf:resource="http://purl.org/dc/dcmitype/StillImage" /><dc:title></dc:title></cc:Work></rdf:RDF></metadata><defs
   id="defs14" /><sodipodi:namedview
   pagecolor="#ffffff"
   bordercolor="#666666"
   borderopacity="1"
   objecttolerance="10"
   gridtolerance="10"
   guidetolerance="10"
   inkscape:pageopacity="0"
   inkscape:pageshadow="2"
   inkscape:window-width="1920"
   inkscape:window-height="1017"
   id="namedview12"
   showgrid="false"
   inkscape:zoom="0.83007815"
   inkscape:cx="469.37794"
   inkscape:cy="301.11877"
   inkscape:window-x="-8"
   inkscape:window-y="-8"
   inkscape:window-maximized="1"
   inkscape:current-layer="Capa_1"
   inkscape:document-rotation="0"
   showguides="true" />

<g
   id="SVGRepo_bgCarrier"
   stroke-width="0" />

<g
   id="SVGRepo_tracerCarrier"
   stroke-linecap="round"
   stroke-linejoin="round"
   stroke="#cccccc"
   stroke-width="0.594" />

<g
   id="SVGRepo_iconCarrier"
   transform="matrix(1.5138806,0,0,1.5138806,101.88873,3.3543528)"> <g
   id="g8"> <path
   d="M 148.5,0 C 87.43,0 37.747,49.703 37.747,110.797 c 0,91.026 99.729,179.905 103.976,183.645 1.936,1.705 4.356,2.559 6.777,2.559 2.421,0 4.841,-0.853 6.778,-2.559 4.245,-3.739 103.975,-92.618 103.975,-183.645 C 259.253,49.703 209.57,0 148.5,0 Z m 0,272.689 C 126.451,251.323 58.257,179.66 58.257,110.797 58.257,61.013 98.74,20.51 148.5,20.51 c 49.76,0 90.243,40.503 90.243,90.287 0,68.862 -68.194,140.525 -90.243,161.892 z"
   id="path4" /> <path
   d="m 148.5,59.183 c -28.273,0 -51.274,23.154 -51.274,51.614 0,28.461 23.001,51.614 51.274,51.614 28.273,0 51.274,-23.153 51.274,-51.614 0,-28.46 -23.001,-51.614 -51.274,-51.614 z m 0,82.718 c -16.964,0 -30.765,-13.953 -30.765,-31.104 0,-17.15 13.801,-31.104 30.765,-31.104 16.964,0 30.765,13.953 30.765,31.104 0,17.151 -13.801,31.104 -30.765,31.104 z"
   id="path6" /> </g> </g>

<text
   xml:space="preserve"
   style="font-size:107.662px;line-height:1.25;font-family:sans-serif;stroke-width:3.81338"
   x="-23.676245"
   y="626.65289"
   id="text843"><tspan
     sodipodi:role="line"
     id="tspan841"
     x="-23.676245"
     y="626.65289"
     style="font-size:107.662px;stroke-width:3.81338">PERMISSION</tspan></text><rect
   style="fill:#ffffff;stroke:#ffffff;stroke-width:16.7062;stroke-opacity:1;fill-opacity:1"
   id="rect1444"
   width="192.87529"
   height="149.26869"
   x="225.23082"
   y="99.442589" /><path
   style="fill:none;stroke:#000000;stroke-width:28.4419;stroke-linecap:butt;stroke-linejoin:miter;stroke-miterlimit:4;stroke-dasharray:none;stroke-opacity:1"
   d="m 243.71708,234.57466 84.2328,58.53456 98.50936,-174.176"
   id="path845"
   sodipodi:nodetypes="ccc" /></svg>
